<?xml version="1.0" standalone="no"?>
<!DOCTYPE svg PUBLIC "-//W3C//DTD SVG 20010904//EN"
 "http://www.w3.org/TR/2001/REC-SVG-20010904/DTD/svg10.dtd">
<svg version="1.0" xmlns="http://www.w3.org/2000/svg"
 width="100.000000pt" height="100.000000pt" viewBox="0 0 100.000000 100.000000"
 preserveAspectRatio="xMidYMid meet">

<g transform="translate(0.000000,100.000000) scale(0.100000,-0.100000)"
fill="#000000" stroke="none">
<path d="M0 500 l0 -500 500 0 500 0 0 500 0 500 -500 0 -500 0 0 -500z m248
58 l2 -268 101 0 100 0 -3 -53 -3 -52 -150 0 -150 0 -3 310 c-1 170 0 316 3
323 3 9 20 12 52 10 l48 -3 3 -267z m390 135 l3 -133 49 0 49 0 3 133 3 132
50 0 50 0 0 -320 0 -320 -50 0 -50 0 -3 133 -3 132 -49 0 -49 0 -3 -132 -3
-133 -50 0 -50 0 -3 310 c-1 170 0 316 3 323 3 9 20 12 52 10 l48 -3 3 -132z"/>
</g>
</svg>
